<mxfile host="app.diagrams.net" modified="2024-03-29T20:23:27.569Z" agent="Mozilla/5.0 (X11; Linux x86_64; rv:124.0) Gecko/20100101 Firefox/124.0" etag="-yJIMOzpGKZ77BLia95V" version="24.0.4" type="device">
  <diagram name="Page-1" id="3_EQi7NGd7EGKFFnlD0m">
    <mxGraphModel dx="1426" dy="730" grid="1" gridSize="10" guides="1" tooltips="1" connect="1" arrows="1" fold="1" page="1" pageScale="1" pageWidth="850" pageHeight="1100" math="0" shadow="0">
      <root>
        <mxCell id="0" />
        <mxCell id="1" parent="0" />
        <mxCell id="hf7dS8s47CBtXchhYv7F-2" value="" style="rounded=0;whiteSpace=wrap;html=1;" vertex="1" parent="1">
          <mxGeometry x="70" y="170" width="740" height="450" as="geometry" />
        </mxCell>
        <mxCell id="hf7dS8s47CBtXchhYv7F-3" value="" style="endArrow=none;html=1;rounded=0;entryX=1.003;entryY=0.109;entryDx=0;entryDy=0;entryPerimeter=0;exitX=-0.001;exitY=0.109;exitDx=0;exitDy=0;exitPerimeter=0;" edge="1" parent="1" source="hf7dS8s47CBtXchhYv7F-2" target="hf7dS8s47CBtXchhYv7F-2">
          <mxGeometry width="50" height="50" relative="1" as="geometry">
            <mxPoint x="70" y="229" as="sourcePoint" />
            <mxPoint x="450" y="360" as="targetPoint" />
          </mxGeometry>
        </mxCell>
        <mxCell id="hf7dS8s47CBtXchhYv7F-10" value="" style="group" vertex="1" connectable="0" parent="1">
          <mxGeometry x="80" y="180" width="120" height="30" as="geometry" />
        </mxCell>
        <mxCell id="hf7dS8s47CBtXchhYv7F-6" value="" style="rounded=0;whiteSpace=wrap;html=1;" vertex="1" parent="hf7dS8s47CBtXchhYv7F-10">
          <mxGeometry width="120" height="30" as="geometry" />
        </mxCell>
        <mxCell id="hf7dS8s47CBtXchhYv7F-7" value="" style="endArrow=none;html=1;rounded=0;exitX=1;exitY=0;exitDx=0;exitDy=0;entryX=0;entryY=1;entryDx=0;entryDy=0;" edge="1" parent="hf7dS8s47CBtXchhYv7F-10" source="hf7dS8s47CBtXchhYv7F-6" target="hf7dS8s47CBtXchhYv7F-6">
          <mxGeometry width="50" height="50" relative="1" as="geometry">
            <mxPoint x="120" y="370" as="sourcePoint" />
            <mxPoint x="320" y="320" as="targetPoint" />
          </mxGeometry>
        </mxCell>
        <mxCell id="hf7dS8s47CBtXchhYv7F-8" value="" style="endArrow=none;html=1;rounded=0;exitX=0;exitY=0;exitDx=0;exitDy=0;entryX=1;entryY=1;entryDx=0;entryDy=0;" edge="1" parent="hf7dS8s47CBtXchhYv7F-10" source="hf7dS8s47CBtXchhYv7F-6" target="hf7dS8s47CBtXchhYv7F-6">
          <mxGeometry width="50" height="50" relative="1" as="geometry">
            <mxPoint y="380" as="sourcePoint" />
            <mxPoint x="480" y="320" as="targetPoint" />
          </mxGeometry>
        </mxCell>
        <mxCell id="hf7dS8s47CBtXchhYv7F-12" value="&lt;div align=&quot;left&quot;&gt;Search&lt;br&gt;&lt;/div&gt;" style="rounded=1;whiteSpace=wrap;html=1;" vertex="1" parent="1">
          <mxGeometry x="210" y="180" width="310" height="30" as="geometry" />
        </mxCell>
        <mxCell id="hf7dS8s47CBtXchhYv7F-13" value="Sign Up" style="rounded=1;whiteSpace=wrap;html=1;" vertex="1" parent="1">
          <mxGeometry x="740" y="180" width="60" height="30" as="geometry" />
        </mxCell>
        <mxCell id="hf7dS8s47CBtXchhYv7F-14" value="Log In" style="rounded=1;whiteSpace=wrap;html=1;" vertex="1" parent="1">
          <mxGeometry x="670" y="180" width="60" height="30" as="geometry" />
        </mxCell>
      </root>
    </mxGraphModel>
  </diagram>
</mxfile>
